<?xml version="1.0" encoding="UTF-8"?>
<svg width="16px" height="15px" viewBox="0 0 16 15" version="1.1" xmlns="http://www.w3.org/2000/svg" xmlns:xlink="http://www.w3.org/1999/xlink">
    <!-- Generator: Sketch 51.2 (57519) - http://www.bohemiancoding.com/sketch -->
    <title>购买</title>
    <desc>Created with Sketch.</desc>
    <defs></defs>
    <g id="数据API" stroke="none" stroke-width="1" fill="none" fill-rule="evenodd">
        <g id="数据API详情" transform="translate(-1379.000000, -269.000000)" fill="#FFFFFF">
            <g id="购买模块" transform="translate(1290.000000, 80.000000)">
                <g id="购买数据" transform="translate(29.000000, 177.361148)">
                    <g id="购买" transform="translate(60.077672, 11.518449)">
                        <path d="M0.223125855,1.9723094 L0.219696257,1.5610477 C0.21691208,1.227182 0.483630134,0.961148041 0.815380201,0.961148041 L3.06906093,0.961148041 C3.6180871,0.961148041 4.15889292,1.39572768 4.2820085,1.93180883 L4.69645625,3.73643527 L14.4361427,3.73643527 C14.9789633,3.73643527 15.2849628,4.16284212 15.1105493,4.68884163 L13.1024533,10.7448964 C13.0526349,10.8951396 12.8782241,11.021587 12.7147983,11.021587 L4.99236483,11.021587 C4.84076563,11.021587 4.66778609,10.8869511 4.63241966,10.7208692 L2.93815781,2.7645615 C2.9174037,2.66709953 2.80342889,2.57220906 2.68775984,2.57220906 L0.820481382,2.57220906 C0.493806987,2.57220906 0.225888764,2.30362483 0.223125855,1.9723094 Z M5.82895769,14.5935981 C5.16530582,14.5935981 4.62730968,14.055602 4.62730968,13.3919501 C4.62730968,12.7282982 5.16530582,12.1903021 5.82895769,12.1903021 C6.49260957,12.1903021 7.03060571,12.7282982 7.03060571,13.3919501 C7.03060571,14.055602 6.49260957,14.5935981 5.82895769,14.5935981 Z M11.7900278,14.5935981 C11.1263759,14.5935981 10.5883798,14.055602 10.5883798,13.3919501 C10.5883798,12.7282982 11.1263759,12.1903021 11.7900278,12.1903021 C12.4536796,12.1903021 12.9916758,12.7282982 12.9916758,13.3919501 C12.9916758,14.055602 12.4536796,14.5935981 11.7900278,14.5935981 Z" id="Path-4"></path>
                    </g>
                </g>
            </g>
        </g>
    </g>
</svg>