<?xml version="1.0" encoding="UTF-8"?>
<svg width="15px" height="15px" viewBox="0 0 15 15" version="1.1" xmlns="http://www.w3.org/2000/svg" xmlns:xlink="http://www.w3.org/1999/xlink">
    <!-- Generator: Sketch 51.2 (57519) - http://www.bohemiancoding.com/sketch -->
    <title>icon-应用管理</title>
    <desc>Created with Sketch.</desc>
    <defs></defs>
    <g id="控制台" stroke="none" stroke-width="1" fill="none" fill-rule="evenodd">
        <g id="导航-copy" transform="translate(-43.000000, -70.000000)" fill="#FFFFFF">
            <g id="icon-应用管理" transform="translate(43.000000, 70.000000)">
                <path d="M12,3.28987868 C11.3662906,3.10127754 10.6949726,3 10,3 C6.13400675,3 3,6.13400675 3,10 C3,11.0735973 3.24169105,12.0907446 3.67363116,13 L1,13 C0.44771525,13 6.76353751e-17,12.5522847 0,12 L0,1 C-6.76353751e-17,0.44771525 0.44771525,1.01453063e-16 1,0 L11,0 C11.5522847,-1.01453063e-16 12,0.44771525 12,1 L12,3.28987868 Z" id="Combined-Shape"></path>
                <path d="M10,14 C7.790861,14 6,12.209139 6,10 C6,7.790861 7.790861,6 10,6 C12.209139,6 14,7.790861 14,10 C14,12.209139 12.209139,14 10,14 Z M10,12 C11.1045695,12 12,11.1045695 12,10 C12,8.8954305 11.1045695,8 10,8 C8.8954305,8 8,8.8954305 8,10 C8,11.1045695 8.8954305,12 10,12 Z" id="Combined-Shape"></path>
                <rect id="Rectangle-15" x="9" y="5" width="2" height="3" rx="1"></rect>
                <path d="M10,5 C10.5522847,5 11,5.44771525 11,6 L11,7 C11,7.55228475 10.5522847,8 10,8 C9.44771525,8 9,7.55228475 9,7 L9,6 C9,5.44771525 9.44771525,5 10,5 Z M10,12 C10.5522847,12 11,12.4477153 11,13 L11,14 C11,14.5522847 10.5522847,15 10,15 C9.44771525,15 9,14.5522847 9,14 L9,13 C9,12.4477153 9.44771525,12 10,12 Z" id="Combined-Shape" transform="translate(10.000000, 10.000000) rotate(-270.000000) translate(-10.000000, -10.000000) "></path>
                <path d="M10,5 C10.5522847,5 11,5.44771525 11,6 L11,7 C11,7.55228475 10.5522847,8 10,8 C9.44771525,8 9,7.55228475 9,7 L9,6 C9,5.44771525 9.44771525,5 10,5 Z M10,12 C10.5522847,12 11,12.4477153 11,13 L11,14 C11,14.5522847 10.5522847,15 10,15 C9.44771525,15 9,14.5522847 9,14 L9,13 C9,12.4477153 9.44771525,12 10,12 Z" id="Combined-Shape-Copy-2" transform="translate(10.000000, 10.000000) rotate(-315.000000) translate(-10.000000, -10.000000) "></path>
                <path d="M10,5 C10.5522847,5 11,5.44771525 11,6 L11,7 C11,7.55228475 10.5522847,8 10,8 C9.44771525,8 9,7.55228475 9,7 L9,6 C9,5.44771525 9.44771525,5 10,5 Z M10,12 C10.5522847,12 11,12.4477153 11,13 L11,14 C11,14.5522847 10.5522847,15 10,15 C9.44771525,15 9,14.5522847 9,14 L9,13 C9,12.4477153 9.44771525,12 10,12 Z" id="Combined-Shape-Copy" transform="translate(10.000000, 10.000000) rotate(-225.000000) translate(-10.000000, -10.000000) "></path>
                <rect id="Rectangle-15-Copy" x="9" y="12" width="2" height="3" rx="1"></rect>
            </g>
        </g>
    </g>
</svg>